#!OML:ASF I:\Actors\actors\Patient Classification 2\Patient 1\Session 1\actor1.ASF
:FULLY-SPECIFIED
:DEGREES
426
root -1.27732 17.8182 6.1631 10.0118 -60.4885 -15.6287
lowerback 8.30336 -8.48625 6.85532
upperback -3.57901 -10.2345 6.71742
thorax -8.39957 -5.21485 5.00751
lowerneck -16.6229 14.0341 18.4235
upperneck 15.8348 17.191 -11.7569
head 10.4357 8.00436 -4.31881
rclavicle -1.50679e-013 -3.18055e-015
rhumerus -18.5104 3.81504 7.89169
rradius 151.117
rwrist -86.8378
rhand 4.94668 -58.3777
rfingers 7.12502
rthumb 30.3191 -85.9067
lclavicle -1.50679e-013 -3.18055e-015
lhumerus -17.0328 65.2352 31.1038
lradius 39.213
lwrist 26.43
lhand -11.8321 -27.9735
lfingers 7.12502
lthumb 14.2188 1.51981
rfemur 11.9959 15.6139 24.6425
rtibia -19.4535
rfoot 21.0841 5.77847
rtoes 27.6319
lfemur 27.7596 13.3387 -11.6677
ltibia -9.40635
lfoot -26.8885 33.6782
ltoes 11.0399
427
root -1.27638 17.8182 6.16741 9.94517 -60.4424 -15.5705
lowerback 8.29565 -8.47997 6.87075
upperback -3.57253 -10.2259 6.69262
thorax -8.39569 -5.21157 4.96976
lowerneck -16.6041 14.0143 18.4102
upperneck 15.7107 17.1638 -11.7862
head 10.3853 7.98959 -4.33448
rclavicle 9.22361e-014 -2.54444e-014
rhumerus -18.6367 3.90538 7.84081
rradius 151.131
rwrist -86.7456
rhand 4.96345 -58.3454
rfingers 7.12502
rthumb 30.3351 -85.8715
lclavicle 9.22361e-014 -2.54444e-014
lhumerus -16.8528 65.2601 31.2299
lradius 39.1553
lwrist 26.4277
lhand -11.9313 -27.987
lfingers 7.12502
lthumb 14.1232 1.51303
rfemur 12.0298 15.5269 24.6053
rtibia -19.4766
rfoot 21.1152 5.81374
rtoes 27.5224
lfemur 27.7311 13.3157 -11.705
ltibia -9.33795
lfoot -26.8711 33.6944
ltoes 10.8862
428
root -1.27546 17.8176 6.17137 9.92609 -60.4083 -15.5478
lowerback 8.25039 -8.46595 6.90926
upperback -3.55531 -10.2096 6.66067
thorax -8.36413 -5.20625 4.90299
lowerneck -16.6155 13.9871 18.3859
upperneck 15.6153 17.1186 -11.7833
head 10.3432 7.96775 -4.33934
rclavicle 3.16068e-014 3.49861e-014
rhumerus -18.7726 4.00426 7.81237
rradius 151.129
rwrist -86.489
rhand 5.15009 -58.2172
rfingers 7.12502
rthumb 30.5131 -85.7103
lclavicle 3.16068e-014 3.49861e-014
lhumerus -16.6949 65.2575 31.3893
lradius 39.1845
lwrist 26.4303
lhand -11.9925 -28.0049
lfingers 7.12502
lthumb 14.0643 1.49923
rfemur 12.0429 15.4737 24.582
rtibia -19.4921
rfoot 21.1345 5.83273
rtoes 27.4691
lfemur 27.6948 13.3071 -11.7254
ltibia -9.27808
lfoot -26.8679 33.6949
ltoes 10.71
429
root -1.27463 17.8173 6.17468 9.92354 -60.3787 -15.5351
lowerback 8.20898 -8.4364 6.90675
upperback -3.53575 -10.1762 6.6586
thorax -8.31934 -5.19057 4.886
lowerneck -16.6687 13.9585 18.3823
upperneck 15.5658 17.0769 -11.8396
head 10.3339 7.94082 -4.36497
rclavicle 1.49089e-014 -6.36111e-015
rhumerus -18.8958 4.08686 7.83697
rradius 151.121
rwrist -86.1643
rhand 5.21677 -57.995
rfingers 7.12502
rthumb 30.5767 -85.4763
lclavicle 1.49089e-014 -6.36111e-015
lhumerus -16.608 65.3275 31.635
lradius 39.3691
lwrist 26.3123
lhand -11.9627 -28.0623
lfingers 7.12502
lthumb 14.093 1.43985
rfemur 12.0339 15.4249 24.561
rtibia -19.4885
rfoot 21.1421 5.86095
rtoes 27.4496
lfemur 27.6793 13.2981 -11.7298
ltibia -9.26113
lfoot -26.8955 33.6477
ltoes 10.8126
430
root -1.27427 17.8177 6.17859 9.9744 -60.3518 -15.5901
lowerback 8.18396 -8.40547 6.90701
upperback -3.51559 -10.1381 6.69533
thorax -8.27676 -5.17228 4.91065
lowerneck -16.7561 13.945 18.3341
upperneck 15.569 17.0585 -11.8577
head 10.345 7.924 -4.3641
rclavicle -3.22031e-014 -3.49861e-014
rhumerus -18.9581 4.11025 7.91333
rradius 151.101
rwrist -85.9624
rhand 5.21548 -57.7414
rfingers 7.12502
rthumb 30.5755 -85.2229
lclavicle -3.22031e-014 -3.49861e-014
lhumerus -16.5128 65.3443 31.8181
lradius 39.3818
lwrist 26.2014
lhand -11.9608 -28.1239
lfingers 7.12502
lthumb 14.0947 1.37807
rfemur 12.0274 15.4047 24.5794
rtibia -19.4774
rfoot 21.1359 5.89308
rtoes 27.4596
lfemur 27.6799 13.2943 -11.6953
ltibia -9.25655
lfoot -26.9289 33.5941
ltoes 11.0062
431
root -1.27382 17.818 6.1839 9.99545 -60.3184 -15.6155
lowerback 8.17623 -8.40295 6.91079
upperback -3.52004 -10.1339 6.73391
thorax -8.27082 -5.17031 4.94789
lowerneck -16.7545 13.9493 18.2808
upperneck 15.566 17.0745 -11.84
head 10.3393 7.93011 -4.34717
rclavicle -6.40087e-014 5.56597e-014
rhumerus -18.908 4.11132 8.02333
rradius 151.081
rwrist -85.8876
rhand 5.23135 -57.7239
rfingers 7.12502
rthumb 30.5906 -85.2026
lclavicle -6.40087e-014 5.56597e-014
lhumerus -16.5797 65.1395 31.7137
lradius 39.2471
lwrist 26.3405
lhand -12.0323 -28.1015
lfingers 7.12502
lthumb 14.0259 1.40532
rfemur 12.0278 15.4245 24.5853
rtibia -19.4513
rfoot 21.0845 5.91401
rtoes 27.4582
lfemur 27.6963 13.2867 -11.6848
ltibia -9.28253
lfoot -26.9353 33.5687
ltoes 10.9584
432
root -1.27334 17.8177 6.19035 10.0062 -60.2593 -15.6199
lowerback 8.15755 -8.41467 6.9242
upperback -3.53647 -10.1482 6.76913
thorax -8.27376 -5.17784 4.97951
lowerneck -16.6747 13.9519 18.2583
upperneck 15.5307 17.0995 -11.8561
head 10.3161 7.94235 -4.34877
rclavicle -1.6678e-013 -1.59028e-014
rhumerus -18.8212 4.09059 8.18573
rradius 151.084
rwrist -85.8057
rhand 5.22282 -57.8701
rfingers 7.12502
rthumb 30.5825 -85.3503
lclavicle -1.6678e-013 -1.59028e-014
lhumerus -16.7825 65.0214 31.5688
lradius 39.2728
lwrist 26.4672
lhand -12.0462 -28.0513
lfingers 7.12502
lthumb 14.0124 1.45642
rfemur 12.0155 15.4624 24.5837
rtibia -19.4136
rfoot 20.992 5.9284
rtoes 27.4021
lfemur 27.7207 13.2569 -11.6898
ltibia -9.3496
lfoot -26.889 33.5731
ltoes 10.7898
